<?xml version="1.0" encoding="UTF-8" standalone="no"?>
<!-- Created with Inkscape (http://www.inkscape.org/) -->

<svg
   width="897.55176mm"
   height="215.55849mm"
   viewBox="0 0 897.55176 215.55848"
   version="1.1"
   id="svg1"
   xml:space="preserve"
   inkscape:version="1.4.2 (ebf0e940d0, 2025-05-08)"
   sodipodi:docname="evogit_logo_with_text.svg"
   inkscape:export-filename="evogit_logo_output.svg"
   inkscape:export-xdpi="96"
   inkscape:export-ydpi="96"
   xmlns:inkscape="http://www.inkscape.org/namespaces/inkscape"
   xmlns:sodipodi="http://sodipodi.sourceforge.net/DTD/sodipodi-0.dtd"
   xmlns:xlink="http://www.w3.org/1999/xlink"
   xmlns="http://www.w3.org/2000/svg"
   xmlns:svg="http://www.w3.org/2000/svg"><sodipodi:namedview
     id="namedview1"
     pagecolor="#ffffff"
     bordercolor="#000000"
     borderopacity="0.25"
     inkscape:showpageshadow="2"
     inkscape:pageopacity="0.0"
     inkscape:pagecheckerboard="0"
     inkscape:deskcolor="#d1d1d1"
     inkscape:document-units="mm"
     inkscape:zoom="0.25354609"
     inkscape:cx="1548.042"
     inkscape:cy="924.88115"
     inkscape:window-width="1920"
     inkscape:window-height="1014"
     inkscape:window-x="26"
     inkscape:window-y="23"
     inkscape:window-maximized="0"
     inkscape:current-layer="layer1"
     showgrid="false" /><defs
     id="defs1"><linearGradient
       id="linearGradient140"
       inkscape:collect="always"><stop
         style="stop-color:#2ec27e;stop-opacity:1;"
         offset="0"
         id="stop140" /><stop
         style="stop-color:#1c71d8;stop-opacity:1;"
         offset="1"
         id="stop141" /></linearGradient><linearGradient
       inkscape:collect="always"
       xlink:href="#linearGradient140"
       id="linearGradient141"
       x1="179.96693"
       y1="83.731239"
       x2="31.691591"
       y2="208.14903"
       gradientUnits="userSpaceOnUse" /><linearGradient
       inkscape:collect="always"
       xlink:href="#linearGradient140"
       id="linearGradient152"
       gradientUnits="userSpaceOnUse"
       x1="179.96693"
       y1="83.731239"
       x2="31.691591"
       y2="208.14903"
       gradientTransform="matrix(0.7801371,0,0,0.7801371,52.706933,68.327511)" /><linearGradient
       inkscape:collect="always"
       xlink:href="#linearGradient140"
       id="linearGradient153"
       gradientUnits="userSpaceOnUse"
       x1="179.96693"
       y1="83.731239"
       x2="31.691591"
       y2="208.14903"
       gradientTransform="translate(-5.523301,3.3575778)" /><linearGradient
       inkscape:collect="always"
       xlink:href="#linearGradient140"
       id="linearGradient154"
       gradientUnits="userSpaceOnUse"
       x1="179.96693"
       y1="83.731239"
       x2="31.691591"
       y2="208.14903"
       gradientTransform="translate(0.6592281,-26.559476)" /><linearGradient
       inkscape:collect="always"
       xlink:href="#linearGradient140"
       id="linearGradient155"
       gradientUnits="userSpaceOnUse"
       x1="179.96693"
       y1="83.731239"
       x2="31.691591"
       y2="208.14903"
       gradientTransform="matrix(0.45730891,0,0,0.45730891,88.199325,-15.523118)" /><linearGradient
       inkscape:collect="always"
       xlink:href="#linearGradient140"
       id="linearGradient160"
       gradientUnits="userSpaceOnUse"
       x1="179.96693"
       y1="83.731239"
       x2="31.691591"
       y2="208.14903"
       gradientTransform="matrix(0.64701913,0,0,0.64701913,95.192135,143.17219)" /><linearGradient
       inkscape:collect="always"
       xlink:href="#linearGradient140"
       id="linearGradient3"
       gradientUnits="userSpaceOnUse"
       x1="179.96693"
       y1="83.731239"
       x2="31.691591"
       y2="208.14903" /><linearGradient
       inkscape:collect="always"
       xlink:href="#linearGradient140"
       id="linearGradient4"
       gradientUnits="userSpaceOnUse"
       x1="179.96693"
       y1="83.731239"
       x2="31.691591"
       y2="208.14903" /><linearGradient
       inkscape:collect="always"
       xlink:href="#linearGradient140"
       id="linearGradient5"
       gradientUnits="userSpaceOnUse"
       x1="179.96693"
       y1="83.731239"
       x2="31.691591"
       y2="208.14903" /></defs><g
     inkscape:label="Layer 1"
     inkscape:groupmode="layer"
     id="layer1"
     transform="translate(-9.0494291,-38.178325)"><g
       id="g155"
       transform="matrix(1.8260456,0,0,1.8260456,-83.028164,-115.74592)"
       style="fill:#073a76;fill-opacity:1"><path
         style="fill:#073a76;fill-opacity:1"
         d="m 116.47368,158.90269 c -0.79818,-0.90908 -1.03013,-1.91648 -0.66209,-2.87559 0.0875,-0.22799 2.88546,-2.9218 6.21771,-5.98625 3.33225,-3.06445 6.05863,-5.67033 6.05863,-5.79085 0,-0.12053 -2.35148,-2.36659 -5.22552,-4.99125 -2.87403,-2.62467 -5.62871,-5.19245 -6.12149,-5.70618 -2.66909,-2.78255 0.92514,-6.33 3.86333,-3.81305 1.47917,1.2671 12.74551,11.56801 13.75751,12.57859 1.29713,1.29532 1.24966,2.85499 -0.12856,4.22452 -1.97496,1.9625 -13.87261,12.64093 -14.43438,12.9552 -1.1613,0.64967 -2.43185,0.42227 -3.32514,-0.59514 z"
         id="path148" /><path
         style="fill:#073a76;fill-opacity:1"
         d="m 87.669385,159.37492 c -1.03661,-0.70146 -7.79371,-6.84002 -12.54783,-11.39923 -2.45084,-2.35036 -2.88814,-3.19814 -2.33656,-4.52979 0.29315,-0.70772 14.21854,-13.53493 15.44189,-14.2241 2.13102,-1.20053 4.79085,1.09463 3.92074,3.38319 -0.14117,0.3713 -3.00703,3.16102 -6.36859,6.19939 -6.11193,5.52431 -6.11193,5.52431 -5.38328,6.29418 0.40075,0.42344 3.1311,2.97143 6.06745,5.66221 2.93634,2.69078 5.40689,5.06974 5.4901,5.28659 0.52371,1.36476 -0.089,3.06403 -1.31441,3.64554 -1.20761,0.57304 -1.73642,0.51642 -2.96951,-0.31798 z"
         id="path147" /><path
         style="fill:#073a76;fill-opacity:1"
         d="m 96.308315,164.21884 c -0.38009,-0.21492 -0.84187,-0.75482 -1.02617,-1.19977 -0.31229,-0.75392 0.0629,-2.08313 5.510905,-19.52371 6.63694,-21.24677 6.10447,-20.04721 8.81185,-19.85137 1.9038,0.13771 2.60804,0.69352 2.60804,2.05837 0,0.53459 -0.88045,3.76059 -1.95654,7.16889 -1.0761,3.40829 -3.6478,11.61424 -5.71489,18.23544 -2.74612,8.79625 -3.92304,12.20872 -4.3699,12.67043 -0.766265,0.79173 -2.827515,1.02742 -3.863295,0.44172 z"
         id="path145" /></g><g
       id="g161"><path
         style="fill:url(#linearGradient3)"
         d="m 67.366065,96.740425 c -3.05594,-1.95606 -5.5817,-3.71003 -5.6128,-3.89771 -0.0311,-0.18768 1.71111,-1.50498 3.87157,-2.92734 7.18798,-4.73229 15.36727,-10.902208 15.36727,-11.592069 0,-0.128649 -8.07916,-0.262634 -18.23699,-0.302441 -17.95004,-0.07034 -18.24847,-0.08005 -18.9675,-0.616983 -1.35115,-1.008968 -1.82155,-1.892991 -1.82155,-3.423235 0,-1.618508 0.5649,-2.589104 1.99385,-3.425808 0.85563,-0.501 1.4884,-0.513544 22.6602,-0.449207 25.33243,0.07698 22.01444,0.701239 24.76323,-4.659053 3.27052,-6.377711 4.45562,-10.952754 4.9229,-19.004686 0.17091,-2.94502 0.32634,-3.902046 0.77647,-4.780964 2.03534,-3.974188 7.931635,-4.705087 11.065705,-1.371694 1.85292,1.970768 2.13841,3.536674 1.70374,9.345141 -1.32347,17.68541 -9.75926,31.318989 -27.537135,44.504359 -4.59644,3.40905 -8.65842,6.169295 -9.06961,6.163065 -0.1777,-0.003 -2.82342,-1.605315 -5.87935,-3.561375 z"
         id="path152" /><path
         style="fill:url(#linearGradient4)"
         d="M 57.576475,109.98545 C 34.925675,95.104155 31.069875,92.258235 24.991095,85.93451 14.158115,74.665005 8.6364352,60.952475 9.0735052,46.404808 c 0.11575,-3.852709 0.4605,-4.832075 2.2794398,-6.475379 1.36665,-1.23468 2.6011,-1.615468 4.829,-1.48958 1.49461,0.08445 2.01713,0.243631 2.94849,0.89822 2.3453,1.648335 2.85604,3.072324 2.85811,7.968585 8.1e-4,1.918677 0.11759,3.793911 0.25951,4.167187 0.25804,0.678682 0.25804,0.678682 21.99054,0.678682 21.6455,0 21.73649,0.0022 22.72952,0.560358 2.7975,1.572279 2.74825,5.764437 -0.0859,7.314988 -0.77283,0.42281 -2.48305,0.464854 -21.67497,0.532854 -23.78777,0.08428 -21.35178,-0.24393 -20.14952,2.71485 4.13908,10.186334 10.47567,16.524275 28.68233,28.688452 7.8538,5.24725 15.32015,10.689805 15.33562,11.178805 0.006,0.17743 -0.61486,0.72666 -1.37885,1.22051 -0.76398,0.49384 -3.15936,2.04531 -5.32306,3.44771 -2.1637,1.40239 -4.00916,2.54356 -4.10104,2.53593 -0.0919,-0.008 -0.40517,-0.17032 -0.69621,-0.36153 z"
         id="path151" /><path
         style="fill:url(#linearGradient154)"
         d="m 120.96085,87.089781 c -0.88583,-0.885824 -0.24023,-5.275017 1.20885,-8.218507 1.05892,-2.15098 3.86829,-5.1997 5.94081,-6.446975 0.84631,-0.50933 2.49462,-1.24744 3.66292,-1.64025 1.16829,-0.39281 2.15933,-0.81968 2.2023,-0.94861 0.043,-0.12892 -0.4012,-0.45056 -0.98706,-0.71475 -1.36715,-0.61649 -3.57718,-2.95278 -4.32071,-4.56755 -0.90214,-1.959216 -0.83985,-5.999115 0.12422,-8.055833 0.89976,-1.919526 2.59616,-3.615919 4.5996,-4.599594 1.40297,-0.68885 1.91012,-1.131088 4.15184,-1.131088 2.21291,0 2.62743,0.446664 3.94578,1.094083 5.62271,2.761205 7.15211,9.755322 3.25147,14.869322 -0.3893,0.51041 -1.43848,1.41592 -2.3315,2.01226 -0.89302,0.59634 -1.62367,1.13832 -1.62367,1.20441 0,0.0661 0.95788,0.44222 2.12863,0.83585 5.62019,1.88965 9.67829,6.319835 10.83479,11.828205 0.53674,2.556503 0.51054,3.917223 -0.0858,4.456917 -0.72032,0.65188 -32.0515,0.67306 -32.70245,0.0221 z"
         id="path150"
         sodipodi:nodetypes="sssscssssssssssssss" /><path
         style="fill:url(#linearGradient160);stroke-width:0.647019"
         d="m 121.0953,243.13234 c -0.2504,-0.25041 -0.27253,-2.3043 -0.0381,-3.54022 0.39412,-2.07822 2.09288,-4.22378 3.87233,-4.89082 0.46161,-0.17304 0.86315,-0.33382 0.89229,-0.35728 0.0291,-0.0235 -0.33098,-0.42664 -0.80028,-0.89593 -1.86272,-1.86272 -2.03417,-4.4328 -0.11713,-6.1999 1.60463,-1.47909 3.20177,-1.51407 4.58096,-0.45666 1.00132,0.7677 1.40388,1.63968 1.4771,3.19954 0.0875,1.86299 -0.17339,2.65617 -1.18941,3.6167 -0.84433,0.79821 -0.84433,0.79821 0.0171,1.08435 1.00431,0.33358 2.54847,1.66198 3.16127,2.71957 0.55238,0.95329 0.90973,2.30956 1.04565,3.9686 0.17272,2.10817 0.67929,1.95748 -6.58,1.95748 -4.52893,0 -6.1697,-0.0533 -6.32182,-0.20543 z"
         id="path149"
         sodipodi:nodetypes="ccscssssssssscc" /><path
         style="fill:url(#linearGradient155);stroke-width:0.457309"
         d="m 154.70897,58.955006 c -0.4162,-0.416192 -0.16638,-2.49855 0.46347,-3.86324 0.87146,-1.888208 3.1803,-3.764901 5.06479,-4.116824 0.64014,-0.119539 0.65861,-0.251154 0.0768,-0.547913 -0.73181,-0.373352 -1.64685,-1.343323 -2.02164,-2.143024 -0.2883,-0.61515 -0.53279,-0.872965 -0.53279,-1.999059 0,-1.147358 0.24043,-1.30291 0.54725,-1.927677 0.46793,-0.952902 1.25856,-1.727443 2.2345,-2.189044 0.72658,-0.343653 0.83268,-0.515356 1.80735,-0.515895 0.98923,-4.55e-4 1.26476,0.166961 1.99406,0.525997 1.00273,0.493641 1.90813,1.448572 2.29207,2.417411 0.42765,1.079206 0.40161,2.623037 -0.0611,3.624842 -0.36906,0.798947 -1.38631,1.887065 -2.11776,2.265318 -0.22052,0.114038 -0.37299,0.235324 -0.3388,0.269516 0.0342,0.03423 0.49554,0.212232 1.02523,0.39564 2.58513,0.895151 4.46444,3.051103 4.92835,5.653795 0.23886,1.340176 0.22445,1.809407 -0.0644,2.098302 -0.23673,0.236742 -0.40332,0.241991 -7.67462,0.241991 -6.5956,0 -7.45405,-0.02142 -7.62277,-0.190136 z"
         id="path146"
         sodipodi:nodetypes="ssscsssscsscssssssss" /><path
         style="fill:url(#linearGradient153)"
         d="m 167.27921,199.6821 c -3.27522,-0.63963 -6.45662,-3.22724 -8.01649,-6.52026 -0.79733,-1.68321 -0.84627,-1.95906 -0.83372,-4.69861 0.0111,-2.429 0.1111,-3.12542 0.60434,-4.21019 2.42265,-5.32803 7.87573,-8.06212 13.28143,-6.65912 1.44673,0.37548 1.44673,0.37548 5.06756,-3.21191 5.82574,-5.77195 5.36099,-3.79804 5.45069,-23.15026 0.0757,-16.32939 0.0757,-16.32939 -1.46576,-17.10751 -2.39957,-1.21131 -4.13651,-2.93866 -5.27857,-5.24947 -0.89404,-1.80896 -0.99832,-2.2446 -1.09127,-4.55866 -0.0926,-2.30499 -0.0312,-2.73736 0.61892,-4.3625 0.72169,-1.80393 0.72169,-1.80393 -9.14601,-11.67426 -9.8677,-9.870344 -9.8677,-9.870344 -11.8716,-10.026924 -2.43028,-0.18989 -3.65298,-0.78429 -4.44694,-2.161803 -1.82485,-3.1661 0.56255,-6.449273 4.68967,-6.449273 1.73762,0 1.73762,0 11.60593,-9.723437 9.86831,-9.723437 9.86831,-9.723437 9.1971,-11.345805 -2.73896,-6.620212 1.34737,-13.898605 8.55577,-15.239147 5.13566,-0.955076 10.7622,2.748289 12.32073,8.109446 2.4459,8.41359 -5.94513,16.442972 -14.16054,13.550229 -1.19062,-0.419234 -1.19062,-0.419234 -4.36562,2.681851 -8.89632,8.689214 -16.27187,16.093516 -16.27187,16.335306 0,0.14926 4.37593,4.641413 9.7243,9.982587 9.7243,9.71121 9.7243,9.71121 11.40065,9.18947 4.09209,-1.27361 8.07518,-0.18075 11.13577,3.05537 5.23118,5.5312 3.65535,14.06209 -3.28885,17.80447 -1.32292,0.71295 -1.32292,0.71295 -1.45521,17.90995 -0.16429,21.35641 0.31745,19.42001 -6.5637,26.38333 -3.8487,3.89465 -3.8487,3.89465 -3.1418,5.33832 4.10056,8.37444 -3.11069,17.79462 -12.25491,16.00881 z"
         id="path143" /><path
         style="fill:url(#linearGradient152);stroke-width:0.780137"
         d="m 174.20036,253.33665 c -2.47797,-0.85687 -4.41409,-2.58898 -5.53223,-4.94931 -0.60399,-1.275 -0.65709,-1.55552 -0.65339,-3.45189 0.003,-1.69099 0.0872,-2.24608 0.46442,-3.0708 0.25323,-0.55369 0.46041,-1.11325 0.46041,-1.24347 0,-0.13023 -2.53501,-2.76565 -5.63336,-5.85649 -5.63335,-5.6197 -5.63335,-5.6197 -14.73057,-5.6197 -9.02768,0 -9.10157,-0.003 -9.66775,-0.44879 -0.55936,-0.43998 -0.56795,-0.47989 -0.43829,-2.03463 0.47294,-5.67098 4.25465,-10.13858 9.77724,-11.55057 1.07939,-0.27599 1.10187,-0.49664 0.1032,-1.01316 -0.98985,-0.51197 -2.57362,-2.15582 -3.10254,-3.22024 -1.86918,-3.76162 -0.33052,-8.44432 3.39424,-10.32991 1.10789,-0.56085 1.28125,-0.96847 3.27427,-0.96698 1.85394,0.002 2.40592,0.43011 3.23866,0.84261 1.46127,0.72389 2.68986,1.91389 3.47937,3.37005 0.68364,1.26089 0.7074,1.38095 0.7074,3.57523 0,2.08508 -0.047,2.35964 -0.57486,3.3616 -0.73672,1.39825 -1.83605,2.61095 -2.96847,3.2746 -1.09512,0.64179 -1.11556,0.81074 -0.12047,0.99588 3.08427,0.57383 6.88275,3.46614 8.46793,6.44781 1.27872,2.40523 1.95134,6.63975 1.18855,7.48263 -0.27253,0.30115 0.0849,0.72201 3.56978,4.20327 3.87264,3.86861 3.87264,3.86861 4.6891,3.50796 0.61083,-0.26982 1.38832,-0.36261 3.08699,-0.36841 2.13554,-0.007 2.35365,0.0316 3.66872,0.65453 4.39614,2.08236 6.3952,7.38147 4.41573,11.70521 -1.77266,3.872 -6.66657,6.0507 -10.56408,4.70297 z"
         id="path142"
         sodipodi:nodetypes="sscsssscssssscssscsssssscsss" /><path
         style="fill:url(#linearGradient5)"
         d="m 94.013585,253.44829 c -1.18347,-0.40074 -3.05823,-2.09908 -3.65863,-3.31435 -0.37122,-0.75139 -0.52713,-1.81922 -0.62876,-4.30643 -0.13513,-3.30729 -0.13513,-3.30729 -22.09555,-3.43958 -21.96041,-0.1323 -21.96041,-0.1323 -22.78769,-0.7224 -2.34326,-1.67146 -2.21818,-5.45956 0.22954,-6.95195 0.84149,-0.51306 1.37475,-0.52578 22.07952,-0.52675 14.19382,-6.6e-4 21.27264,-0.0907 21.38469,-0.272 0.26173,-0.4235 -1.13644,-4.37926 -2.46796,-6.98244 -3.08838,-6.03788 -9.40143,-12.49854 -18.04122,-18.46303 -1.38245,-0.95438 -6.44261,-4.20637 -11.2448,-7.22664 -17.65362,-11.10304 -22.79374,-14.8196 -28.70729,-20.75681 -8.33865,-8.37201 -13.23498,-16.99654 -14.69604,-25.886 -0.59202,-3.60201 -0.42487,-9.93648 0.35747,-13.5474 2.33297,-10.76777 9.38658,-21.00237 20.82087,-30.21054 2.32146,-1.86951 7.74775,-5.5082 8.21423,-5.5082 0.52703,0 10.72327,7.42683 10.55967,7.69155 -0.0781,0.12632 -1.55812,1.19719 -3.28897,2.37969 -6.89088,4.70776 -14.16806,11.34501 -17.82202,16.2548 -9.43832,12.6822 -8.0438,26.44632 3.87943,38.29033 6.94557,6.89943 12.36024,10.92275 27.16495,20.18466 12.61825,7.89405 17.7624,11.52869 22.51921,15.91115 12.47693,11.495 16.989605,22.02607 16.593275,38.72322 -0.11166,4.70393 -0.27868,5.36151 -1.7703,6.96955 -1.499715,1.61678 -4.539845,2.40501 -6.593625,1.70957 z"
         id="path141" /><path
         style="fill:url(#linearGradient141)"
         d="m 16.433775,253.36129 c -1.47081,-0.66103 -3.11192,-2.44479 -3.59929,-3.91215 -0.648,-1.95093 -0.39885,-11.35494 0.40702,-15.36345 1.54411,-7.68053 4.63352,-14.18226 9.82154,-20.66963 3.78955,-4.73864 12.2655,-12.4657 17.47011,-15.92653 1.74116,-1.1578 1.87731,-1.20331 2.54436,-0.85045 1.57699,0.83422 10.53021,7.04555 10.53021,7.30538 0,0.15399 -1.84546,1.50119 -4.10104,2.99379 -6.1035,4.03891 -11.90625,8.63735 -11.90625,9.43521 0,0.28582 2.61884,0.34989 14.30064,0.34989 15.45172,0 14.99786,-0.0397 16.37441,1.4337 1.02363,1.09567 1.10925,3.54846 0.167,4.78381 -1.37769,1.80624 -0.38329,1.71999 -19.8298,1.71999 -14.94684,0 -17.6462,0.0572 -17.96959,0.38057 -0.59134,0.59133 -2.698,4.83192 -3.45924,6.96324 -1.20499,3.37374 -1.75811,6.71368 -1.91674,11.5739 -0.083,2.54212 -0.30691,5.08145 -0.51503,5.83991 -0.40021,1.45857 -1.67122,2.98417 -3.10301,3.72458 -1.20039,0.62074 -4.05404,0.74016 -5.2153,0.21824 z"
         id="path139" /></g><path
       d="M 358.59223,234.64943 H 248.86614 V 65.357742 H 355.93951 V 83.44446 h -85.85162 v 54.019 h 68.24722 v 16.88094 h -68.24722 v 61.97715 h 88.50434 z M 475.31185,109.24818 431.90373,234.64943 H 411.6466 L 367.03269,109.24818 h 21.46291 l 35.20881,102.00909 34.24419,-102.00909 z m 121.7839,61.97716 q 0,32.07378 -19.05134,50.64281 -15.434,15.19284 -39.30847,15.19284 -31.10915,0 -45.57853,-27.73297 -8.68162,-16.63978 -8.68162,-38.34384 0,-32.55609 19.53365,-50.88397 14.95169,-14.22822 38.10269,-14.22822 29.90337,0 45.09622,26.28603 9.8874,16.88094 9.8874,39.06732 z m -21.4629,-0.24116 q 0,-32.07378 -16.88094,-43.89044 -7.717,-5.30544 -18.32787,-5.30544 -24.59794,0 -32.07379,28.45644 -2.41156,9.64625 -2.41156,20.73944 0,34.7265 18.32788,45.81969 6.75237,4.34081 16.15747,4.34081 26.76834,0 33.52071,-31.59147 1.6881,-8.68162 1.6881,-18.56903 z m 180.14374,64.87103 h -13.02244 l -5.54659,-20.98059 q -14.46938,20.98059 -43.89044,22.18637 -1.6881,0 -3.13503,0 -38.10269,0 -57.39519,-32.55609 -13.26359,-22.42753 -13.26359,-52.81322 0,-39.06731 20.25712,-64.147563 20.01597,-24.839094 53.05438,-24.839094 37.62037,0 54.50131,30.868 4.34081,7.958157 6.75237,17.845567 l -20.01597,5.06428 q -4.34081,-22.668691 -23.151,-31.832628 -8.92278,-4.099657 -19.53365,-4.099657 -32.79725,0 -44.1316,36.414595 -4.82312,14.95169 -4.82312,33.76187 0,35.20882 16.39862,54.26016 12.54013,14.95169 32.79725,14.95169 25.32141,0 36.65575,-19.2925 5.78775,-10.36972 5.78775,-24.35678 v -9.4051 h -42.20234 v -17.6044 h 63.90641 z M 810.7602,87.061804 H 789.53845 V 65.357742 h 21.22175 z m -0.96462,147.587626 h -19.2925 V 109.24818 h 19.2925 z m 96.70362,0.96462 -22.66869,1.6881 q -31.35031,0 -31.35031,-41.23772 V 123.4764 H 830.29383 V 108.28355 H 852.4802 V 77.174398 l 19.2925,-2.170406 v 33.279558 h 27.97413 V 123.4764 H 871.7727 v 75.96422 q 2.17041,21.22175 17.1221,22.42753 0,0 17.6044,-1.44694 z"
       id="text1"
       style="font-weight:500;font-size:246.944px;font-family:'WenQuanYi Zen Hei';-inkscape-font-specification:'WenQuanYi Zen Hei, Medium';opacity:0.91;stroke:#000000;stroke-width:0.204;paint-order:markers fill stroke"
       aria-label="EvoGit" /></g></svg>
